<svg width="120" height="32" viewBox="0 0 120 32" fill="none" xmlns="http://www.w3.org/2000/svg">
  <defs>
    <linearGradient id="clodiGradient" x1="0" y1="16" x2="120" y2="16" gradientUnits="userSpaceOnUse">
      <stop offset="0" stop-color="#7C3AED" />
      <stop offset="0.48" stop-color="#EC4899" />
      <stop offset="1" stop-color="#38BDF8" />
    </linearGradient>
  </defs>
  <rect x="2" y="2" width="28" height="28" rx="14" fill="url(#clodiGradient)" />
  <path d="M18.8 10.2c-1.6-1.3-3.5-2-5.6-2-4.9 0-8.9 4-8.9 8.9 0 4.9 4 8.9 8.9 8.9 2.1 0 4-0.7 5.6-2 0.7-0.6 0.8-1.6 0.2-2.3-0.6-0.7-1.6-0.8-2.3-0.2-1 0.8-2.2 1.2-3.5 1.2-3.1 0-5.7-2.6-5.7-5.7 0-3.1 2.6-5.7 5.7-5.7 1.3 0 2.5 0.4 3.5 1.2 0.7 0.6 1.7 0.5 2.3-0.2 0.6-0.7 0.5-1.7-0.2-2.3z" fill="white" />
  <text x="40" y="22" font-family="'Inter', 'Segoe UI', sans-serif" font-size="18" font-weight="600" letter-spacing="0.02em" fill="#0F172A">clodi</text>
</svg>
